<svg width="50" height="50" viewBox="0 0 50 50" fill="none" xmlns="http://www.w3.org/2000/svg">
<path d="M42.1875 18.75C42.1892 15.8535 41.4589 13.0036 40.0644 10.4649C38.6699 7.92621 36.6564 5.78112 34.211 4.22886C31.7656 2.6766 28.9675 1.76752 26.0767 1.58607C23.1859 1.40462 20.2962 1.95667 17.6758 3.19096C15.0555 4.42524 12.7896 6.30172 11.0886 8.64611C9.38758 10.9905 8.30663 13.7267 7.94614 16.6007C7.58565 19.4747 7.95732 22.3931 9.02663 25.085C10.0959 27.7769 11.8282 30.1548 14.0625 31.9981V46.875C14.0623 47.1415 14.1303 47.4036 14.2599 47.6364C14.3896 47.8692 14.5766 48.065 14.8033 48.2051C15.0299 48.3453 15.2887 48.4251 15.5549 48.4371C15.8211 48.449 16.0859 48.3927 16.3242 48.2735L25 43.9453L33.6777 48.2832C33.8953 48.3873 34.1338 48.4401 34.375 48.4375C34.7894 48.4375 35.1868 48.2729 35.4799 47.9799C35.7729 47.6868 35.9375 47.2894 35.9375 46.875V31.9981C37.8924 30.388 39.4667 28.365 40.5473 26.0745C41.6279 23.784 42.188 21.2826 42.1875 18.75ZM10.9375 18.75C10.9375 15.9687 11.7623 13.2499 13.3075 10.9373C14.8527 8.62474 17.0489 6.82231 19.6185 5.75796C22.1881 4.6936 25.0156 4.41512 27.7435 4.95772C30.4713 5.50033 32.977 6.83965 34.9437 8.80632C36.9104 10.773 38.2497 13.2787 38.7923 16.0066C39.3349 18.7344 39.0564 21.5619 37.9921 24.1315C36.9277 26.7011 35.1253 28.8973 32.8127 30.4426C30.5001 31.9878 27.7813 32.8125 25 32.8125C21.2717 32.8084 17.6972 31.3255 15.0609 28.6891C12.4245 26.0528 10.9416 22.4784 10.9375 18.75ZM14.0625 18.75C14.0625 16.5868 14.704 14.4721 15.9058 12.6735C17.1076 10.8748 18.8158 9.47291 20.8144 8.64508C22.813 7.81725 25.0121 7.60065 27.1338 8.02267C29.2555 8.4447 31.2043 9.4864 32.734 11.016C34.2636 12.5457 35.3053 14.4945 35.7273 16.6162C36.1494 18.7379 35.9328 20.937 35.1049 22.9356C34.2771 24.9342 32.8752 26.6424 31.0766 27.8442C29.2779 29.046 27.1632 29.6875 25 29.6875C22.1001 29.6844 19.32 28.5311 17.2694 26.4806C15.2189 24.4301 14.0656 21.6499 14.0625 18.75Z" fill="black"/>
</svg>
