<svg width="50" height="50" viewBox="0 0 50 50" fill="none" xmlns="http://www.w3.org/2000/svg">
<path d="M33.3334 35.4167V39.5834H4.16675V35.4167C4.16675 35.4167 4.16675 27.0834 18.7501 27.0834C33.3334 27.0834 33.3334 35.4167 33.3334 35.4167ZM26.0417 15.625C26.0417 14.1829 25.6141 12.7731 24.8129 11.574C24.0117 10.3749 22.8729 9.4403 21.5405 8.88841C20.2081 8.33652 18.742 8.19212 17.3275 8.47347C15.9131 8.75482 14.6139 9.44928 13.5941 10.469C12.5743 11.4888 11.8799 12.7881 11.5985 14.2025C11.3172 15.6169 11.4616 17.083 12.0135 18.4154C12.5653 19.7478 13.4999 20.8866 14.699 21.6878C15.8982 22.489 17.3079 22.9167 18.7501 22.9167C20.684 22.9167 22.5386 22.1485 23.9061 20.781C25.2735 19.4136 26.0417 17.5589 26.0417 15.625ZM33.2084 27.0834C34.4891 28.0745 35.5371 29.3343 36.2786 30.774C37.02 32.2137 37.437 33.7985 37.5001 35.4167V39.5834H45.8334V35.4167C45.8334 35.4167 45.8334 27.8542 33.2084 27.0834ZM31.2501 8.33336C29.8161 8.32538 28.4137 8.7541 27.2292 9.56253C28.4948 11.3307 29.1752 13.4506 29.1752 15.625C29.1752 17.7994 28.4948 19.9193 27.2292 21.6875C28.4137 22.496 29.8161 22.9247 31.2501 22.9167C33.184 22.9167 35.0386 22.1485 36.4061 20.781C37.7735 19.4136 38.5418 17.5589 38.5418 15.625C38.5418 13.6912 37.7735 11.8365 36.4061 10.469C35.0386 9.10159 33.184 8.33336 31.2501 8.33336Z" fill="black"/>
</svg>
